<svg width="32" height="32" viewBox="0 0 32 32" fill="none" xmlns="http://www.w3.org/2000/svg">
<path fill-rule="evenodd" clip-rule="evenodd" d="M29 11.3973C29 12.4412 28.1535 13.2877 27.1096 13.2877H21.8919L21.8925 13.2871H16.3543L16.3538 13.2877H4.42471C3.38085 13.2877 2.5343 12.4412 2.5343 11.3973V9.50692C2.5343 8.46305 3.38085 7.6165 4.42471 7.6165H20.912L25.761 1.37047C26.0788 0.956351 26.6719 0.87719 27.0866 1.19502L28.5877 2.34462C29.0018 2.66186 29.0804 3.25497 28.7632 3.66968L25.6989 7.6165H27.1096C28.1535 7.6165 29 8.46305 29 9.50692V11.3973ZM11.805 18.959H4.42471C3.38085 18.959 2.5343 19.8055 2.5343 20.8494V22.7398C2.5343 23.7837 3.38085 24.6302 4.42471 24.6302H7.7028L4.63856 28.577C4.32133 28.9911 4.3999 29.5843 4.81402 29.9021L6.31512 31.0517C6.72983 31.3695 7.32295 31.2904 7.64018 30.8762L12.4897 24.6302H27.1096C28.1535 24.6302 29 23.7837 29 22.7398V20.8494C29 19.8055 28.1535 18.959 27.1096 18.959H16.9875L16.9874 18.959H11.805L11.805 18.959ZM16.9929 13.8258H20.2323L16.6049 18.4609H13.3655L16.9929 13.8258Z" fill="url(#paint0_linear_862_577)"/>
<defs>
<linearGradient id="paint0_linear_862_577" x1="2.5343" y1="16.1234" x2="29" y2="16.1234" gradientUnits="userSpaceOnUse">
<stop stop-color="#22E1FF"/>
<stop offset="0.48" stop-color="#1D8FE1"/>
<stop offset="1" stop-color="#625EB1"/>
</linearGradient>
</defs>
</svg>
